<svg xmlns="http://www.w3.org/2000/svg" viewBox="386.1 458.4 259.8 267.1"><path d="M645.8 515.4c-1.2-7.2-8.1-13.1-15.4-13.1h-55.8c-8 0-14.7 6.7-14.7 14.7 0 8.4 6.3 14.7 14.7 14.7h41.9v138.7H414.7V530.9h41.9c8 0 14.7-6.7 14.7-14.7 0-8.4-6.3-14.7-14.7-14.7h-55.8c-8 0-14.7 6.7-14.7 14.7v167.3c0 8 6.7 14.7 14.7 14.7h230.4c8 0 14.7-6.7 14.7-14.7V515.8l-.1-.4z"/><path d="M459.8 567.9c-4.8 5.7-4.8 14.5 0 19.4l45.3 45.3.8.8c.8.8 1.6 1.6 2.4 1.6.8 0 1.6.8 2.4.8h8c.8-.8.8-.8 1.6-.8s1.6 0 2.4-.8c.8-.8 1.6-.8 2.4-1.6l45.3-45.3c4.8-4.8 4.8-13.7.8-19.4-5.7-5.7-14.5-5.7-19.4 0l-22.6 22.6V472.2c0-8.1-6.5-13.7-13.7-13.7-8.1 0-13.7 6.5-13.7 13.7v118.3l-22.6-22.6c-5.6-5.7-14.5-5.7-19.4 0z"/></svg>