<svg xmlns="http://www.w3.org/2000/svg" width="48" height="48"><g fill="#82B758"><path d="M30 47H8c-1.654 0-3-1.346-3-3V4c0-1.654 1.346-3 3-3h22c.266 0 .52.105.707.293l12 12c.188.187.293.442.293.707v13h-2V14.414L29.586 3H8c-.552 0-1 .45-1 1v40c0 .55.448 1 1 1h22v2z"/><path d="M24 18H12c-.553 0-1-.448-1-1s.447-1 1-1h12c.553 0 1 .448 1 1s-.447 1-1 1zm11 6H12c-.553 0-1-.448-1-1s.447-1 1-1h23c.553 0 1 .448 1 1s-.447 1-1 1zm-9 6H12c-.553 0-1-.448-1-1s.447-1 1-1h14c.553 0 1 .448 1 1s-.447 1-1 1zm-3 6H12c-.553 0-1-.448-1-1s.447-1 1-1h11c.553 0 1 .448 1 1s-.447 1-1 1zm19-21H30c-.553 0-1-.448-1-1V3h2v10h11v2z"/><path d="M35 48c-6.617 0-12-5.383-12-12s5.383-12 12-12 12 5.383 12 12-5.383 12-12 12zm0-22c-5.514 0-10 4.486-10 10s4.486 10 10 10 10-4.486 10-10-4.486-10-10-10z"/><path d="M33 40c-.192 0-.385-.055-.555-.168l-3-2c-.46-.306-.584-.927-.277-1.387.305-.46.926-.584 1.387-.277l2.263 1.508 5.424-6.327c.36-.42.992-.47 1.41-.11.42.36.468.99.107 1.41l-6 7c-.2.23-.48.35-.76.35z"/></g></svg>