<?xml version="1.0" encoding="utf-8"?>
<!-- Generator: Adobe Illustrator 18.1.1, SVG Export Plug-In . SVG Version: 6.00 Build 0)  -->
<!DOCTYPE svg PUBLIC "-//W3C//DTD SVG 1.1//EN" "http://www.w3.org/Graphics/SVG/1.1/DTD/svg11.dtd">
<svg version="1.1" id="Layer_1" xmlns="http://www.w3.org/2000/svg" xmlns:xlink="http://www.w3.org/1999/xlink" x="0px" y="0px"
	 viewBox="1349.7 321.7 594.1 594.1" enable-background="new 1349.7 321.7 594.1 594.1" xml:space="preserve">
<linearGradient id="SVGID_1_" gradientUnits="userSpaceOnUse" x1="3.4151" y1="0.3481" x2="1.9931" y2="2.2851" gradientTransform="matrix(594.1396 0 0 594.1396 -47.6565 -43.9415)">
	<stop  offset="0" style="stop-color:#D4145A"/>
	<stop  offset="1" style="stop-color:#FBB03B"/>
</linearGradient>
<circle fill="url(#SVGID_1_)" cx="1646.7" cy="618.7" r="297.1"/>
<g>
	<path fill="#FFFFFF" d="M1794.8,547c-1.4-8.2-9.2-14.9-17.6-14.9h-63.6c-9.1,0-16.8,7.6-16.8,16.8c0,9.6,7.2,16.8,16.8,16.8h47.8
		v158.2h-230.1V564.7h47.8c9.1,0,16.8-7.6,16.8-16.8c0-9.6-7.2-16.8-16.8-16.8h-63.6c-9.1,0-16.8,7.6-16.8,16.8v190.8
		c0,9.1,7.6,16.8,16.8,16.8h262.7c9.1,0,16.8-7.6,16.8-16.8V547.5L1794.8,547L1794.8,547z"/>
	<path fill="#FFFFFF" d="M1582.7,606.8c-5.5,6.5-5.5,16.5,0,22.1l51.7,51.7l0.9,0.9c0.9,0.9,1.8,1.8,2.7,1.8s1.8,0.9,2.7,0.9h9.1
		c0.9-0.9,0.9-0.9,1.8-0.9s1.8,0,2.7-0.9s1.8-0.9,2.7-1.8l51.7-51.7c5.5-5.5,5.5-15.6,0.9-22.1c-6.5-6.5-16.5-6.5-22.1,0l-25.8,25.8
		V497.6c0-9.2-7.4-15.6-15.6-15.6c-9.2,0-15.6,7.4-15.6,15.6v134.9l-25.8-25.8C1598.4,600.4,1588.2,600.4,1582.7,606.8L1582.7,606.8
		z"/>
</g>
</svg>
