<?xml version="1.0" encoding="iso-8859-1"?>
<!-- Generator: Adobe Illustrator 21.1.0, SVG Export Plug-In . SVG Version: 6.00 Build 0)  -->
<svg version="1.1" id="Layer_1" xmlns="http://www.w3.org/2000/svg" xmlns:xlink="http://www.w3.org/1999/xlink" x="0px" y="0px"
	 width="523.1px" height="542.2px" viewBox="0 0 523.1 542.2" style="enable-background:new 0 0 523.1 542.2;" xml:space="preserve"
	>
<title>plugin-icons</title>
<desc>Created with Sketch.</desc>
<g>
	<path style="fill:#E64C4C;" d="M261.7,10C14.126,10,12.2,121.684,12.2,259.5S14.126,509,261.7,509s249.5-111.684,249.5-249.5
		S509.274,10,261.7,10z M350.552,257.024L243.178,388.055c-11.187,13.662-18.522,10.545-16.322-7.06l10.912-89.218l-55.75-6.877
		c-14.029-1.742-18.155-11.92-9.169-22.924l107.374-131.031c11.187-13.662,18.522-10.545,16.322,7.06l-10.912,89.218l55.75,6.877
		C355.411,235.843,359.629,246.021,350.552,257.024L350.552,257.024z"/>
	<g id="Page-1_1_">
		<g id="feedme" transform="translate(138.000000, 162.000000)">
			<g id="invalid-icon" transform="translate(184.000000, 206.000000)">
				<g id="Shape_2_">
					<g id="Page-1">
						
							<linearGradient id="Shape_3_" gradientUnits="userSpaceOnUse" x1="-1003.0343" y1="72.1771" x2="-1002.7048" y2="73.0346" gradientTransform="matrix(200 0 0 175.1209 200639 -12633.3545)">
							<stop  offset="0" style="stop-color:#FBDA61"/>
							<stop  offset="1" style="stop-color:#F76B1C"/>
						</linearGradient>
						<path id="Shape_1_" style="fill:url(#Shape_3_);" d="M111.3,5.5c-5-8.6-17.5-8.6-22.5,0l-86.9,149
							c-5.1,8.7,1.2,19.6,11.3,19.6h173.7c10.1,0,16.3-10.9,11.3-19.6L111.3,5.5L111.3,5.5L111.3,5.5L111.3,5.5L111.3,5.5L111.3,5.5
							L111.3,5.5L111.3,5.5"/>
					</g>
				</g>
			</g>
		</g>
	</g>
</g>
</svg>
