<svg xmlns="http://www.w3.org/2000/svg" viewBox="1225.8 321.1 522 522"><linearGradient id="a" gradientUnits="userSpaceOnUse" x1="3.415" y1="594.932" x2="1.993" y2="592.995" gradientTransform="matrix(521 0 0 -521 .982 310141.875)"><stop offset="0" stop-color="#D4145A"/><stop offset="1" stop-color="#FBB03B"/></linearGradient><circle fill="url(#a)" stroke="#979797" cx="1486.8" cy="582.1" r="260.5"/><g fill="#F4E6E9"><path d="M1616.6 519.2c-1.2-7.2-8.1-13.1-15.4-13.1h-55.8c-8 0-14.7 6.7-14.7 14.7 0 8.4 6.3 14.7 14.7 14.7h41.9v138.7h-201.8V534.7h41.9c8 0 14.7-6.7 14.7-14.7 0-8.4-6.3-14.7-14.7-14.7h-55.8c-8 0-14.7 6.7-14.7 14.7v167.3c0 8 6.7 14.7 14.7 14.7H1602c8 0 14.7-6.7 14.7-14.7V519.6l-.1-.4z"/><path d="M1430.6 571.6c-4.8 5.7-4.8 14.5 0 19.4l45.3 45.3.8.8c.8.8 1.6 1.6 2.4 1.6s1.6.8 2.4.8h8c.8-.8.8-.8 1.6-.8s1.6 0 2.4-.8c.8-.8 1.6-.8 2.4-1.6l45.3-45.3c4.8-4.8 4.8-13.7.8-19.4-5.7-5.7-14.5-5.7-19.4 0l-22.6 22.6V475.9c0-8.1-6.5-13.7-13.7-13.7-8.1 0-13.7 6.5-13.7 13.7v118.3l-22.6-22.6c-5.6-5.6-14.5-5.6-19.4 0z"/></g></svg>