<?xml version="1.0" encoding="iso-8859-1"?>
<!-- Generator: Adobe Illustrator 21.1.0, SVG Export Plug-In . SVG Version: 6.00 Build 0)  -->
<svg version="1.1" id="Layer_1" xmlns:sketch="http://www.bohemiancoding.com/sketch/ns"
	 xmlns="http://www.w3.org/2000/svg" xmlns:xlink="http://www.w3.org/1999/xlink" x="0px" y="0px" width="593.3px" height="595.5px"
	 viewBox="0 0 593.3 595.5" style="enable-background:new 0 0 593.3 595.5;" xml:space="preserve">
<path style="fill:#E64C4C;" d="M297.1,26C27.1,26,25,147.8,25,298.1s2.1,272.1,272.1,272.1s272.1-121.8,272.1-272.1
	S567.1,26,297.1,26z M394,295.4L276.9,438.3c-12.2,14.9-20.2,11.5-17.8-7.7l11.9-97.3l-60.8-7.5c-15.3-1.9-19.8-13-10-25
	l117.1-142.9c12.2-14.9,20.2-11.5,17.8,7.7l-11.9,97.3l60.8,7.5C399.3,272.3,403.9,283.4,394,295.4L394,295.4z"/>
<title>registered-icon</title>
<desc>Created with Sketch.</desc>
<g id="icon_1_" transform="translate(197.098824, 200.000000)">
	
		<linearGradient id="Oval-1_2_" gradientUnits="userSpaceOnUse" x1="-1145.9916" y1="494.9621" x2="-1146.6611" y2="494.244" gradientTransform="matrix(-197.3517 0 0 -199.7584 -225936.4531 99091.2422)">
		<stop  offset="0" style="stop-color:#B4ED50"/>
		<stop  offset="0.5185" style="stop-color:#79BE38"/>
		<stop  offset="1" style="stop-color:#429321"/>
	</linearGradient>
	<ellipse id="Oval-1_1_" style="fill:url(#Oval-1_2_);" cx="295.3" cy="292.6" rx="98.7" ry="99.9"/>
	<path id="Shape" style="fill:#FFFFFF;" d="M329.9,259l-55.3,55.3h12L259,286.7c-3.4-3.4-8.8-3.4-12,0c-3.4,3.4-3.4,8.8,0,12
		l27.6,27.6c3.4,3.4,8.8,3.4,12,0l55.3-55.3c3.4-3.4,3.4-8.8,0-12C338.7,255.8,333.3,255.8,329.9,259L329.9,259z"/>
</g>
</svg>
