<?xml version="1.0" encoding="utf-8"?>
<!-- Generator: Adobe Illustrator 18.1.1, SVG Export Plug-In . SVG Version: 6.00 Build 0)  -->
<!DOCTYPE svg PUBLIC "-//W3C//DTD SVG 1.1//EN" "http://www.w3.org/Graphics/SVG/1.1/DTD/svg11.dtd">
<svg version="1.1" id="Layer_1" xmlns:sketch="http://www.bohemiancoding.com/sketch/ns"
	 xmlns="http://www.w3.org/2000/svg" xmlns:xlink="http://www.w3.org/1999/xlink" x="0px" y="0px" viewBox="-411 285.2 33.4 29.7"
	 enable-background="new -411 285.2 33.4 29.7" xml:space="preserve">
<title>icon-mask</title>
<desc>Created with Sketch.</desc>
<g>
	<path d="M-378.8,291.8h-6.9c-0.6,0-1.2,0.5-1.2,1.2s0.5,1.2,1.2,1.2h5.3h0.5v0.5V312v0.5h-0.5h-27.8h-0.5V312v-17.4v-0.5h0.5h5.3
		c0.6,0,1.2-0.5,1.2-1.2s-0.5-1.2-1.2-1.2h-6.9c-0.6,0-1.2,0.5-1.2,1.2v20.7c0,0.6,0.5,1.2,1.2,1.2h31.1c0.6,0,1.2-0.5,1.2-1.2V293
		C-377.6,292.3-378.1,291.8-378.8,291.8z"/>
	<path d="M-387.5,302.7l-5.6,5.6c-0.1,0.1-0.2,0.1-0.3,0.2c-0.1,0.1-0.2,0.1-0.3,0.1c-0.1,0-0.1,0-0.2,0.1c0,0-0.1,0-0.2,0
		c0,0,0,0-0.1,0c-0.1,0-0.2,0-0.3,0c-0.1,0-0.2,0-0.2,0c0,0,0,0-0.1,0c0,0-0.1,0-0.1,0c-0.1,0-0.2-0.1-0.3-0.1
		c-0.1,0-0.2-0.1-0.3-0.2c0,0-0.1-0.1-0.1-0.1l-5.6-5.6c-0.6-0.6-0.6-1.7,0-2.4c0.6-0.7,1.7-0.7,2.4,0l2.8,2.8v-16.2
		c0-0.9,0.7-1.7,1.7-1.7c0.9,0,1.7,0.7,1.7,1.7v16.2l2.8-2.8c0.6-0.7,1.7-0.7,2.4,0C-386.8,301-386.8,302-387.5,302.7z"/>
</g>
</svg>
