<?xml version="1.0" encoding="utf-8"?>
<!-- Generator: Adobe Illustrator 18.1.1, SVG Export Plug-In . SVG Version: 6.00 Build 0)  -->
<!DOCTYPE svg PUBLIC "-//W3C//DTD SVG 1.1//EN" "http://www.w3.org/Graphics/SVG/1.1/DTD/svg11.dtd">
<svg version="1.1" id="Layer_1" xmlns="http://www.w3.org/2000/svg" xmlns:xlink="http://www.w3.org/1999/xlink" x="0px" y="0px"
	 viewBox="-159 27.2 523.1 542.2" enable-background="new -159 27.2 523.1 542.2" xml:space="preserve">
<title>plugin-icons</title>
<desc>Created with Sketch.</desc>
<g>
	
		<linearGradient id="SVGID_1_" gradientUnits="userSpaceOnUse" x1="-316.716" y1="1.1622" x2="-317.968" y2="2.8678" gradientTransform="matrix(594.1396 0 0 594.1396 188570.7656 -803.1781)">
		<stop  offset="0" style="stop-color:#D4145A"/>
		<stop  offset="1" style="stop-color:#FBB03B"/>
	</linearGradient>
	<circle fill="url(#SVGID_1_)" cx="102.6" cy="288.7" r="261.6"/>
	<g>
		<path fill="#FFFFFF" d="M232.9,224.6c-1.2-7.2-8.1-13.2-15.5-13.2h-56c-8,0-14.8,6.7-14.8,14.8c0,8.4,6.3,14.8,14.8,14.8h42.1
			v139.3H0.9V240.2h42.1c8,0,14.8-6.7,14.8-14.8c0-8.4-6.3-14.8-14.8-14.8h-56c-8,0-14.8,6.7-14.8,14.8v168c0,8,6.7,14.8,14.8,14.8
			h231.3c8,0,14.8-6.7,14.8-14.8V225L232.9,224.6L232.9,224.6z"/>
		<path fill="#FFFFFF" d="M46.1,277.2c-4.8,5.7-4.8,14.6,0,19.5l45.5,45.5l0.8,0.8c0.8,0.8,1.6,1.6,2.4,1.6c0.8,0,1.6,0.8,2.4,0.8h8
			c0.8-0.8,0.8-0.8,1.6-0.8c0.8,0,1.6,0,2.4-0.8c0.8-0.8,1.6-0.8,2.4-1.6l45.5-45.5c4.8-4.8,4.8-13.8,0.8-19.5
			c-5.7-5.7-14.6-5.7-19.5,0l-22.7,22.7V181.1c0-8.1-6.5-13.8-13.8-13.8c-8.1,0-13.8,6.5-13.8,13.8v118.8l-22.7-22.7
			C60,271.6,51.1,271.6,46.1,277.2L46.1,277.2z"/>
	</g>
	<g id="Page-1_1_">
		<g id="charge" transform="translate(138.000000, 162.000000)">
			<g id="invalid-icon" transform="translate(184.000000, 206.000000)">
				<g id="Shape_2_">
					<g id="Page-1">
						
							<linearGradient id="Shape_3_" gradientUnits="userSpaceOnUse" x1="-639.0446" y1="228.3755" x2="-638.7151" y2="227.518" gradientTransform="matrix(200 0 0 -175.1209 127682 40026.9141)">
							<stop  offset="0" style="stop-color:#FBDA61"/>
							<stop  offset="1" style="stop-color:#F76B1C"/>
						</linearGradient>
						<path id="Shape_1_" fill="url(#Shape_3_)" d="M-47.7,32.7c-5-8.6-17.5-8.6-22.5,0l-86.9,149c-5.1,8.7,1.2,19.6,11.3,19.6H27.9
							c10.1,0,16.3-10.9,11.3-19.6L-47.7,32.7L-47.7,32.7L-47.7,32.7L-47.7,32.7L-47.7,32.7L-47.7,32.7L-47.7,32.7L-47.7,32.7"/>
					</g>
				</g>
			</g>
		</g>
	</g>
</g>
</svg>
