<svg xmlns="http://www.w3.org/2000/svg" width="48" height="48"><g fill="#E4544E"><path d="M30 47H8c-1.654 0-3-1.346-3-3V4c0-1.654 1.346-3 3-3h22c.266 0 .52.105.707.293l12 12c.188.187.293.442.293.707v13h-2V14.414L29.586 3H8c-.552 0-1 .45-1 1v40c0 .55.448 1 1 1h22v2z"/><path d="M24 18H12c-.553 0-1-.448-1-1s.447-1 1-1h12c.553 0 1 .448 1 1s-.447 1-1 1zm11 6H12c-.553 0-1-.448-1-1s.447-1 1-1h23c.553 0 1 .448 1 1s-.447 1-1 1zm-9 6H12c-.553 0-1-.448-1-1s.447-1 1-1h14c.553 0 1 .448 1 1s-.447 1-1 1zm-3 6H12c-.553 0-1-.448-1-1s.447-1 1-1h11c.553 0 1 .448 1 1s-.447 1-1 1zm19-21H30c-.553 0-1-.448-1-1V3h2v10h11v2z"/><path d="M35 48c-6.617 0-12-5.383-12-12s5.383-12 12-12 12 5.383 12 12-5.383 12-12 12zm0-22c-5.514 0-10 4.486-10 10s4.486 10 10 10 10-4.486 10-10-4.486-10-10-10z"/><path d="M30.758 41.243c-.256 0-.512-.098-.707-.293-.39-.39-.39-1.023 0-1.414l8.49-8.485c.39-.39 1.024-.39 1.415 0s.39 1.03 0 1.42l-8.484 8.486c-.195.196-.45.294-.707.294z"/><path d="M39.242 41.243c-.256 0-.512-.098-.707-.293l-8.484-8.485c-.39-.39-.39-1.023 0-1.414s1.03-.39 1.42 0l8.485 8.49c.39.39.39 1.025 0 1.416-.195.196-.45.294-.707.294z"/></g></svg>