<?xml version="1.0" encoding="utf-8"?>
<!-- Generator: Adobe Illustrator 23.0.3, SVG Export Plug-In . SVG Version: 6.00 Build 0)  -->
<svg version="1.1" id="Layer_1" xmlns="http://www.w3.org/2000/svg" xmlns:xlink="http://www.w3.org/1999/xlink" x="0px" y="0px"
	 viewBox="0 0 34.2 42.5" style="enable-background:new 0 0 34.2 42.5;" xml:space="preserve">
<title>Combined Shape</title>
<desc>Created with Sketch.</desc>
<g id="Icons">
	<g id="feedme-9-copy-2" transform="translate(-30.000000, -18.000000)">
		<path id="Combined-Shape" d="M46.7,20.7l-0.5,4.5l1.3,0.2l1.3-0.2l0.1-4.6l3.3,2l0.1-0.1L52.1,18l4.2,1.4c1.5-0.6,3.9-0.7,5.3,1.2
			c1.3,1.8,0.8,4.3-0.9,5.7l-0.1,0.1c1.8,2.2,2.9,4.8,2.9,7.7c0,7.2-6.7,13-15.2,13.6v5.7c1.2-1.2,2.8-2.4,4.8-3.3
			c4.8-2.3,9.7-2.1,10.8,0.4c1.1,2.3-1.5,5.8-5.8,8.1c-3.6,1.7-8.5,3-11,1.2c0,0-2.8,2.5-11-1.2c-4.3-2.3-6.9-5.8-5.8-8.1
			c1.1-2.4,6-2.6,10.8-0.4c1.9,0.9,3.6,2,4.8,3.3v-5.7c-8.5-0.5-15.2-6.4-15.2-13.6c0-3.1,1.2-5.9,3.3-8.2c-1.4-1.5-1.6-3.9-0.2-5.5
			c1.4-1.7,2.9-1.7,4.6-1.2l4.4-1.1l-0.1,4.5 M47.6,29.4l-9.5-7.9c-0.8-0.7-2-0.6-2.7,0.2c-0.7,0.8-0.6,2,0.2,2.7l10.6,8.9
			c0.4,0.3,0.8,0.5,1.3,0.5c0.5,0,0.9-0.1,1.3-0.5l10.6-8.9c0.8-0.7,0.9-1.9,0.2-2.7c-0.7-0.8-1.9-0.9-2.7-0.2L47.6,29.4z"/>
	</g>
</g>
</svg>
