<?xml version="1.0" encoding="UTF-8"?>
<svg width="81px" height="100px" viewBox="0 0 81 100" version="1.1" xmlns="http://www.w3.org/2000/svg" xmlns:xlink="http://www.w3.org/1999/xlink">
    <!-- Generator: Sketch 53.2 (72643) - https://sketchapp.com -->
    <title>Combined Shape</title>
    <desc>Created with Sketch.</desc>
    <g id="Icons" stroke="none" stroke-width="1" fill="none" fill-rule="evenodd">
        <g id="feedme-final-mask" fill="#000000" fill-rule="nonzero">
            <path d="M14.2145542,21.0506046 C11.4335776,23.9895936 9.43643596,27.4089094 8.46440728,31.1200218 C8.98460243,31.0654719 9.51271261,31.0375054 10.0473547,31.0375054 C18.3330073,31.0375054 25.0498559,37.7543539 25.0498559,46.0400065 C25.0498559,50.1867762 23.3674455,53.9405979 20.6479695,56.6561266 C23.0622409,58.1056123 25.7416353,59.2988426 28.6195235,60.1837549 C29.2534894,54.103916 34.3940909,49.3641899 40.6417147,49.3641899 C46.8893385,49.3641899 52.02994,54.103916 52.6639058,60.1837549 C55.691923,59.25268 58.5001967,57.9802803 61.011117,56.4271988 C58.4238189,53.7315281 56.8336736,50.0714665 56.8336736,46.0400065 C56.8336736,37.7543539 63.5505221,31.0375054 71.8361747,31.0375054 C72.1617788,31.0375054 72.4849602,31.0478781 72.8054065,31.0683111 C71.8285855,27.3777795 69.837615,23.9771074 67.0703026,21.0521133 L71.6692422,17.1931448 C71.7025693,17.1651801 71.7356588,17.1370372 71.7685106,17.1087189 C76.3655601,22.3542039 79.0764131,28.8069378 79.0764131,35.784002 C79.0764131,52.5257183 63.4679382,66.2484596 43.6444255,67.5170359 L43.6444255,80.7729026 C46.438818,77.9363296 50.2679022,75.2448511 54.7870166,73.1375534 C66.0593425,67.8811816 77.3563413,68.2499832 80.0195697,73.961295 C82.6827981,79.6726068 75.7037457,88.563671 64.4314199,93.8200429 C63.9122374,94.0621417 63.3930026,94.2923075 62.8745614,94.5105679 C57.0851146,97.4114198 48.2098807,99.3029124 40.6417147,99.3029124 C33.0292722,99.3029124 24.0944234,97.3892233 18.3075747,94.4595514 C17.8292481,94.2565206 17.3503022,94.0433583 16.8714007,93.8200429 C5.59907485,88.563671 -1.37997755,79.6726068 1.28325086,73.961295 C3.94647927,68.2499832 15.2434781,67.8811816 26.5158039,73.1375534 C31.0244741,75.2399809 34.8462999,77.9238921 37.6390039,80.7532379 L37.6390039,67.5170359 C17.8154912,66.2484596 2.20701627,52.5257183 2.20701627,35.784002 C2.20701627,28.806535 4.91818225,22.3534588 9.51571505,17.1078104 L9.41221257,17.0209615 C5.33855259,13.6027549 4.80720262,7.52939702 8.22540922,3.45573703 C11.559304,-0.51744404 17.4189841,-1.12090578 21.485617,2.02320069 L26.8838738,1.26447282 L27.0737031,6.70195533 L27.3885358,6.9661313 L32.8162147,6.24229788 L33.0458845,11.7132105 L33.3607172,11.9773865 L38.7485556,11.2201229 L38.9383849,16.6576054 L40.3658961,17.8554295 L41.7934073,16.6576054 L41.9832366,11.2201229 L47.371075,11.9773865 L47.6859077,11.7132105 L47.9155775,6.24229788 L53.3432564,6.9661313 L53.6580891,6.70195533 L53.8479184,1.26447282 L59.2461752,2.02320069 C63.3128081,-1.12090578 69.1724882,-0.51744404 72.506383,3.45573703 C75.9245896,7.52939702 75.3932396,13.6027549 71.3195796,17.0209615 L48.0077458,36.5819126 C47.9669556,36.6325381 47.9255705,36.6828706 47.8835896,36.7329015 C45.9475398,39.0401958 43.1597135,40.2111116 40.3658961,40.1716524 C37.5720787,40.2111116 34.7842524,39.0401958 32.8482026,36.7329015 C32.8062217,36.6828706 32.7648365,36.6325381 32.7240464,36.5819126 L14.2145542,21.0506046 Z M40.3340832,24.6887592 L18.3948616,6.23619509 C18.3922205,6.23397368 18.3895768,6.23175533 18.3869305,6.22954004 C16.4949611,4.64572068 13.6772777,4.8955256 12.0934583,6.78749495 C10.5048879,8.68513972 10.752079,11.5105545 12.6460372,13.1035184 L37.3074928,33.8456896 C37.3101339,33.847911 37.3127777,33.8501294 37.315424,33.8523446 C38.1940885,34.5878988 39.2724148,34.9279695 40.3340832,34.8917347 C41.3957516,34.9279695 42.4740779,34.5878988 43.3527424,33.8523446 C43.3553887,33.8501294 43.3580325,33.847911 43.3606736,33.8456896 L68.0221292,13.1035184 C69.9160874,11.5105545 70.1632785,8.68513972 68.5747081,6.78749495 C66.9908887,4.8955256 64.1732053,4.64572068 62.2812359,6.22954004 C62.2785896,6.23175533 62.2759459,6.23397368 62.2733048,6.23619509 L40.3340832,24.6887592 Z" id="Combined-Shape"></path>
        </g>
    </g>
</svg>