<?xml version="1.0" encoding="UTF-8"?>
<svg width="100px" height="100px" viewBox="0 0 100 100" version="1.1" xmlns="http://www.w3.org/2000/svg" xmlns:xlink="http://www.w3.org/1999/xlink">
    <!-- Generator: Sketch 53.2 (72643) - https://sketchapp.com -->
    <title>feedme-final</title>
    <desc>Created with Sketch.</desc>
    <g id="feedme-final" stroke="none" stroke-width="1" fill="none" fill-rule="evenodd">
        <path d="M50,100 C22.3857625,100 0,77.6142375 0,50 C0,22.3857625 22.3857625,0 50,0 C77.6142375,0 100,22.3857625 100,50 C100,77.6142375 77.6142375,100 50,100 Z M36.7872677,25.8736857 C34.8362477,28.1138671 33.6867481,30.8645539 33.6867481,33.8375756 C33.6867481,41.0063983 40.3703154,46.8824923 48.8587669,47.4256981 L48.8587669,53.0934554 C47.6629278,51.8819262 46.0264175,50.7326723 44.0957996,49.8324104 C39.2689764,47.5816258 34.4315882,47.7395471 33.2911906,50.1851375 C32.2192576,52.4839054 34.7952875,55.9856687 39.1170845,58.2670975 L33.1260666,58.2670975 C31.8734848,58.2670975 30.8580666,59.2825157 30.8580666,60.5350975 L30.8580666,69.6281992 C30.8580666,70.880781 31.8734848,71.8961992 33.1260666,71.8961992 L67.1629959,71.8961992 C68.4155777,71.8961992 69.4309959,70.880781 69.4309959,69.6281992 L69.4309959,60.5350975 C69.4309959,59.2825157 68.4155777,58.2670975 67.1629959,58.2670975 L61.1802813,58.2670975 C65.5020783,55.9856687 68.0781083,52.4839054 67.0061752,50.1851375 C65.8657776,47.7395471 61.0283894,47.5816258 56.2015662,49.8324104 C54.2664761,50.7347577 52.6268577,51.887252 51.4302956,53.1018759 L51.4302956,47.4256981 C59.9187471,46.8824923 66.6023144,41.0063983 66.6023144,33.8375756 C66.6023144,30.923373 65.497849,28.222795 63.6166496,26.0072443 C65.3016713,24.4869107 65.4926138,21.8929431 64.021943,20.1402659 C62.5908632,18.4347714 60.1020707,18.1404003 58.319965,19.4115176 L55.9792536,19.0359507 L55.9429244,21.3888411 L55.8097259,21.5006079 L53.4694171,21.1419536 L53.4162322,23.5089875 L53.2830338,23.6207543 L50.9595805,23.2479565 L50.9232513,25.6008469 L50.2726762,26.1467442 L49.6221012,25.6008469 L49.585772,23.2479565 L47.2623187,23.6207543 L47.1291203,23.5089875 L47.0759354,21.1419536 L44.7356266,21.5006079 L44.6024281,21.3888411 L44.5660989,19.0359507 L42.2253875,19.4115176 C40.4432818,18.1404003 37.9544893,18.4347714 36.5234095,20.1402659 C35.0949625,21.8426227 35.2340868,24.3386557 36.7872677,25.8736857 Z M38.7883196,27.5712776 L47.3331716,34.7412598 C48.1871214,35.4578087 49.2407843,35.7799087 50.2726762,35.7269372 C51.3045682,35.7799087 52.3582311,35.4578087 53.2121809,34.7412598 L61.612639,27.6924385 C62.718932,28.9076018 63.5168138,30.3061316 63.917062,31.8183112 C63.7798465,31.8095618 63.6414598,31.8051202 63.5020358,31.8051202 C59.9541096,31.8051202 57.0779471,34.6812826 57.0779471,38.2292088 C57.0779471,39.9554847 57.7588492,41.5227274 58.8667334,42.6770169 C57.7915543,43.3420482 56.5890482,43.8868912 55.2924477,44.2855786 C55.0209827,41.6821844 52.8197711,39.6526281 50.1445313,39.6526281 C47.4692914,39.6526281 45.2680798,41.6821844 44.9966148,44.2855786 C43.7642997,43.9066581 42.6169798,43.3957155 41.583186,42.775044 C42.7476688,41.6122514 43.4680789,40.0048605 43.4680789,38.2292088 C43.4680789,34.6812826 40.5919164,31.8051202 37.0439902,31.8051202 C36.8150559,31.8051202 36.5889185,31.8170955 36.3661703,31.8404538 C36.7777107,30.2692321 37.6183828,28.8201619 38.7883196,27.5712776 Z M35.0727481,73.4391164 C34.3072814,73.4391164 33.6867481,74.0596497 33.6867481,74.8251164 L33.6867481,80.282008 C33.6867481,81.0474746 34.3072814,81.668008 35.0727481,81.668008 L65.2163144,81.668008 C65.9817811,81.668008 66.6023144,81.0474746 66.6023144,80.282008 L66.6023144,74.8251164 C66.6023144,74.0596497 65.9817811,73.4391164 65.2163144,73.4391164 L35.0727481,73.4391164 Z M48.858767,57.0427812 C48.848477,57.1693399 48.8177914,57.2891031 48.765621,57.4009829 C48.1354692,58.7523476 44.6094052,58.4418226 40.8899365,56.7074059 C37.1704679,54.9729892 34.6660817,52.471469 35.2962334,51.1201043 C35.9263851,49.7687395 39.4524492,50.0792645 43.1719178,51.8136812 C46.42667,53.3313971 48.7510005,55.4365048 48.8587669,56.8443338 L48.8587669,57.0427815 Z M59.4074293,56.7074059 C55.6879606,58.4418226 52.1618966,58.7523476 51.5317448,57.4009829 C50.9015931,56.0496181 53.4059793,53.548098 57.125448,51.8136812 C60.8449167,50.0792645 64.3709807,49.7687395 65.0011324,51.1201043 C65.6312842,52.471469 63.126898,54.9729892 59.4074293,56.7074059 Z M36.0827828,34.2621422 C36.3910166,34.1877239 36.7128989,34.148295 37.0439902,34.148295 C39.2978167,34.148295 41.1249041,35.9753824 41.1249041,38.2292088 C41.1249041,39.4927877 40.5506249,40.6222364 39.6488306,41.3707911 C37.4838879,39.4756042 36.1471522,36.9903686 36.0827828,34.2621422 Z M47.0848319,44.7842555 C47.1085993,43.1147449 48.4693704,41.7686826 50.1445313,41.7686826 C51.8196921,41.7686826 53.1804632,43.1147449 53.2042306,44.7842555 C52.2192121,44.9550106 51.1953295,45.0450563 50.1445312,45.0450563 C49.093733,45.0450563 48.0698504,44.9550106 47.0848319,44.7842555 Z M60.7671504,41.258157 C59.9405553,40.5113421 59.421122,39.4309356 59.421122,38.2292088 C59.421122,35.9753824 61.2482093,34.148295 63.5020358,34.148295 C63.7425758,34.148295 63.9782552,34.169106 64.2073715,34.2090257 C64.1601578,36.9043238 62.871152,39.3651979 60.7671504,41.258157 Z M50.2588446,29.1828159 L59.8035122,21.3356455 C60.6279489,20.657833 61.8431376,20.7641264 62.5373771,21.5747786 C62.5455808,21.584358 62.5536881,21.5940195 62.5616977,21.6037617 C63.2221749,22.4071131 63.1063525,23.5937807 62.3030011,24.2542579 L51.5688777,33.0793421 C51.1860307,33.3941006 50.7189207,33.539772 50.2588446,33.524342 C49.7987684,33.539772 49.3316584,33.3941006 48.9488114,33.0793421 L38.214688,24.2542579 C37.4113366,23.5937807 37.2955142,22.4071131 37.9559914,21.6037617 C37.964001,21.5940195 37.9721083,21.584358 37.980312,21.5747786 C38.6745515,20.7641264 39.8897402,20.657833 40.7141769,21.3356455 L50.2588446,29.1828159 Z" id="Combined-Shape" fill="#E64C4C" fill-rule="nonzero"></path>
    </g>
</svg>